<svg width="267" height="143" viewBox="0 0 267 143" fill="none" xmlns="http://www.w3.org/2000/svg">
<path d="M39.1517 9.02714L24.9562 17.0292L25.2389 18.0334C26.0554 20.8891 25.2389 24.592 23.2917 26.7886C21.0933 29.2991 18.4238 29.5188 16.037 27.3849C15.3146 26.7573 14.4667 25.6276 14.1526 24.8744C13.8071 24.1213 13.4303 23.5564 13.3046 23.6192C11.5773 24.3409 3.60022 29.0794 3.75725 29.2991C3.85147 29.456 3.75725 29.7071 3.56882 29.8326C3.34898 29.9581 6.1127 31.7154 10.4153 34.1945L17.6387 38.3368L35.5714 28.2949L53.5042 18.2217L55.0745 19.1317C56.6448 20.0104 56.6448 20.0104 55.9225 20.4811C55.5142 20.7322 47.6627 25.1568 38.4608 30.3347C29.2588 35.4811 21.8785 39.7489 22.0669 39.8117C22.3181 39.9058 22.3181 40.0627 22.0669 40.3451C21.8156 40.6589 23.1661 41.569 28.0968 44.4246C31.6143 46.4644 34.6293 48.0962 34.7863 48.0962C34.9747 48.0962 43.0774 43.6401 52.8133 38.1485L70.5262 28.2008L71.751 28.7656C72.4105 29.0481 73.1015 29.4874 73.2585 29.6757C73.5098 29.9895 69.427 32.4372 56.3621 39.7489C42.1981 47.7196 39.1203 49.5711 39.1203 50.1045C39.1203 50.6066 40.4393 51.5167 45.6213 54.5292L52.1537 58.2949L77.1214 44.3305C98.0692 32.5941 102.089 30.2405 102.089 29.6757C102.089 29.1108 100.519 28.1066 93.5467 24.0585L85.0357 19.1317L78.1892 19.3514L71.3742 19.5711L71.5626 15.523L71.751 11.4748L62.7375 6.29701C57.7754 3.44136 53.6298 1.08781 53.5042 1.05643C53.41 1.02505 46.9404 4.60245 39.1517 9.02714Z" fill="white"/>
<path d="M126.837 1.46448C126.743 1.7469 126.649 33.5042 126.649 72.0712V142.176H128.847H131.045V71.5691V0.962387H129.035C127.496 0.962387 126.994 1.08791 126.837 1.46448Z" fill="white"/>
<path d="M188.455 29.6443C181.672 32.0606 178.437 39.4037 181.044 46.4016C181.923 48.7866 184.812 51.7677 187.325 52.9288C189.083 53.7447 189.649 53.8389 192.287 53.8389C195.647 53.8389 197.123 53.3995 199.542 51.6108C201.332 50.3242 201.3 49.9477 199.228 47.9079L197.72 46.433L196.244 47.3431C192.444 49.7594 187.545 48.2845 185.66 44.1422C183.682 39.7803 187.262 34.5397 192.224 34.5397C194.046 34.5397 195.836 35.1673 196.935 36.1715L197.626 36.8619L199.322 35.1987C200.578 33.9748 200.955 33.3786 200.829 32.9079C200.641 32.092 198.348 30.4602 196.432 29.7698C194.642 29.1108 190.151 29.0481 188.455 29.6443Z" fill="white"/>
<path d="M154.914 29.9265C154.914 30.1775 154.223 35.1043 153.344 40.9411C152.496 46.778 151.773 52.0186 151.773 52.6148V53.6817H154.097C156.83 53.6817 156.421 54.6545 157.458 45.5541C158.306 38.1169 157.772 38.1796 161.98 44.9893C163.55 47.4997 164.87 49.5709 164.964 49.6022C165.058 49.6022 166.597 47.2487 168.387 44.393C170.177 41.5374 171.685 39.2466 171.716 39.3093C171.779 39.3721 172.187 42.5102 172.658 46.2759C173.098 50.0416 173.538 53.2738 173.632 53.4307C173.852 53.7759 178.06 53.7445 178.28 53.3993C178.374 53.2424 177.683 47.8763 176.741 41.4746C175.799 35.0729 175.014 29.7382 175.014 29.6755C175.014 29.3303 172.25 29.5499 172.093 29.8951C172.03 30.1148 170.397 32.688 168.481 35.6064L164.995 40.8784L161.289 35.1985L157.583 29.5186H156.264C155.354 29.5186 154.914 29.6441 154.914 29.9265Z" fill="white"/>
<path d="M203.656 41.5059L203.75 53.5247H206.105H208.461L208.555 48.5666C208.618 43.9222 208.681 43.6398 209.246 43.6398C209.654 43.6398 211.256 45.303 214.02 48.6607L218.197 53.6503L221.086 53.6816C223.881 53.6816 223.975 53.6503 223.913 52.9599C223.881 52.5833 221.84 49.8532 219.045 46.5268C216.375 43.3888 214.302 40.6272 214.397 40.4076C214.491 40.1879 216.501 37.8657 218.919 35.2298C221.306 32.6252 223.284 30.2402 223.284 29.9892C223.284 29.6126 222.751 29.5185 220.364 29.5185H217.443L213.423 34.0687C211.256 36.5791 209.246 38.6189 209.026 38.6189C208.712 38.6189 208.618 37.7088 208.618 34.5708C208.618 32.3427 208.524 30.303 208.429 30.0205C208.272 29.6126 207.739 29.5185 205.917 29.5185H203.593L203.656 41.5059Z" fill="white"/>
<path d="M79.8537 46.7778C65.3128 54.8113 54.8232 60.805 54.6976 61.1188C54.3836 61.872 54.3522 119.581 54.6662 119.55C54.7918 119.55 58.1523 117.761 62.1094 115.564L69.3328 111.548L69.427 90.3971L69.5212 69.2151L87.2341 59.487L104.978 49.759V41.3803C104.978 36.736 104.947 32.9703 104.916 33.0017C104.853 33.0017 93.5781 39.215 79.8537 46.7778Z" fill="white"/>
<path d="M0.616667 41.8197C0.334014 53.054 0.396826 91.0247 0.679479 91.8093C0.836508 92.2172 9.59875 97.2068 25.867 106.15C46.7519 117.636 50.8347 119.77 51.0231 119.33C51.2744 118.671 51.3372 105.24 51.0859 104.016C50.9289 103.2 49.3272 102.259 33.1846 93.3783L15.4717 83.6503V71.0352C15.4717 64.0687 15.5345 58.3888 15.5973 58.3888C15.6601 58.3888 23.6372 62.7507 33.3102 68.0854C49.3586 76.9034 50.9289 77.6879 51.0859 77.0917C51.3372 76.213 51.3372 63.0959 51.0859 61.9348C50.9289 61.0561 50.1752 60.5854 42.3865 56.3176C37.6756 53.7758 26.4323 47.5938 17.3874 42.6356C8.34252 37.6775 0.930726 33.598 0.867914 33.598C0.836508 33.598 0.710885 37.3009 0.616667 41.8197Z" fill="white"/>
<path d="M250.419 53.7137C249.917 55.9417 249.948 56.0673 251.142 56.6321C253.937 57.9501 257.297 58.0129 260.186 56.7576C261.82 56.0673 261.882 55.9104 261.348 53.8079C261.066 52.6781 260.877 52.4271 260.469 52.6154C256.857 54.2158 254.471 54.2786 252.052 52.8978L250.733 52.1761L250.419 53.7137Z" fill="white"/>
<path d="M162.42 59.3618C155.762 60.0835 151.114 66.548 152.119 73.64C153.344 82.3953 163.456 87.0082 170.711 82.1442C173.066 80.5438 173.066 80.1986 170.962 78.0647L169.455 76.5271L168.261 77.343C164.775 79.7279 160.661 78.912 158.054 75.3032C156.39 72.981 156.547 69.9371 158.463 67.458C160.818 64.3513 165.592 63.7237 168.45 66.14L169.392 66.9559L171.088 65.2927C172.941 63.4413 173.004 62.9392 171.433 61.6212C169.329 59.8325 165.874 58.9852 162.42 59.3618Z" fill="white"/>
<path d="M227.147 59.4565C226.205 59.6448 224.823 60.1468 224.101 60.5234C222.217 61.4962 219.798 64.0381 218.762 66.1406C217.945 67.8351 217.883 68.2431 217.883 71.5694C217.883 74.833 217.977 75.3665 218.731 76.9669C219.893 79.4774 222.091 81.7368 224.603 82.9607C226.519 83.9021 226.896 83.9648 229.817 83.9648C232.643 83.9648 233.146 83.8707 234.842 83.0548C237.26 81.8623 239.647 79.446 240.809 77.0611C241.657 75.3351 241.751 74.8958 241.751 71.7263C241.751 68.4314 241.688 68.1489 240.715 66.172C238.171 61.0255 232.518 58.2012 227.147 59.4565ZM232.643 65.2619C234.214 65.9523 235.878 67.5841 236.444 68.9648C237.04 70.3456 237.009 73.264 236.381 74.4879C234.528 78.128 230.068 79.6971 226.645 77.9084C224.886 76.9983 223.222 74.9899 222.782 73.264C221.4 67.8351 227.461 62.9084 232.643 65.2619Z" fill="white"/>
<path d="M173.914 60.3662C173.789 60.7741 173.757 61.8725 173.82 62.8139L173.914 64.5085L177.84 64.6654L181.766 64.8223L181.86 74.2992L181.923 83.8076H184.278H186.634L186.697 74.2992L186.791 64.8223L190.811 64.7281L194.799 64.634V62.1549V59.6444H184.435H174.071L173.914 60.3662Z" fill="white"/>
<path d="M197.186 60.1465C196.935 60.7741 196.935 82.1758 197.186 83.0859C197.375 83.7449 197.563 83.8076 199.699 83.8076H202.023V79.7909V75.7741L206.42 75.1151C211.162 74.362 212.764 73.7658 214.114 72.134C215.527 70.4708 215.904 69.1842 215.778 66.6737C215.653 63.6612 214.491 61.7783 212.104 60.5231L210.439 59.6444H203.907C198.254 59.6444 197.343 59.7072 197.186 60.1465ZM208.963 64.8536C210.063 65.3871 210.785 66.862 210.565 67.9917C210.314 69.4352 208.901 70.2197 205.886 70.6277C204.378 70.816 202.871 71.067 202.588 71.1298C202.085 71.2867 202.023 70.9729 202.023 67.8348V64.3515H205.006C207.142 64.3515 208.304 64.5085 208.963 64.8536Z" fill="white"/>
<path d="M245.363 72.0711V84.5293L249.98 79.6967C252.523 77.0293 256.135 73.295 257.988 71.4121L261.38 67.9603V75.8682V83.8075H263.735H266.091V71.7259V59.6444H264.583H263.044L256.795 66.3912L250.545 73.1067L250.356 66.454C250.262 62.7824 250.168 59.7699 250.137 59.7071C250.105 59.6757 249.006 59.6444 247.718 59.6444H245.363V72.0711Z" fill="white"/>
<path d="M153.029 101.852V113.965L155.322 113.871L157.583 113.777L157.678 104.268L157.74 94.7912H163.707H169.675V92.2807V89.7703H161.352H153.029V101.852Z" fill="white"/>
<path d="M173.318 90.2715C173.066 90.8991 173.066 112.301 173.318 113.211C173.506 113.87 173.695 113.933 175.83 113.933H178.154V109.916V105.899L182.551 105.209C185.063 104.832 187.45 104.267 188.173 103.922C190.591 102.667 191.973 100.251 191.973 97.2694C191.973 94.1314 190.654 91.8406 188.11 90.554C186.54 89.8008 186.351 89.7694 180.007 89.7694C174.385 89.7694 173.475 89.8322 173.318 90.2715ZM185.063 94.9473C186.194 95.5435 186.634 96.2966 186.634 97.7088C186.634 99.7171 185.817 100.094 179.034 101.223L178.154 101.349V97.9284V94.4765H181.138C183.211 94.4765 184.435 94.6335 185.063 94.9473Z" fill="white"/>
<path d="M194.014 90.397C194.077 90.7736 195.993 94.6021 198.285 98.9326L202.431 106.809L200.986 109.728C198.913 113.87 198.913 113.933 202.023 113.933C204.284 113.933 204.567 113.87 204.975 113.211C206.168 111.359 216.469 90.805 216.469 90.3343C216.469 89.8322 216.155 89.7694 213.831 89.7694H211.193L208.304 95.2924L205.415 100.847L203.781 97.8657C202.902 96.2025 201.614 93.7234 200.923 92.3113L199.699 89.7694H196.809C194.046 89.7694 193.889 89.8008 194.014 90.397Z" fill="white"/>
<path d="M220.238 101.851V113.933H222.594H224.949L225.012 104.424L225.106 94.9473L230.539 94.8531L235.941 94.7904V103.859C235.941 108.849 236.035 113.148 236.129 113.431C236.287 113.838 236.82 113.933 238.642 113.933H240.966V101.851V89.7694H230.602H220.238V101.851Z" fill="white"/>
<path d="M245.363 101.851V113.933H247.687C249.508 113.933 250.042 113.838 250.199 113.431C250.294 113.148 250.388 108.849 250.388 103.859V94.7904L255.821 94.8531L261.223 94.9473L261.317 104.424L261.38 113.933H263.735H266.091V101.851V89.7694H255.727H245.363V101.851Z" fill="white"/>
<path d="M0.554196 97.0502C0.334354 98.2427 0.459978 113.494 0.711225 113.713C0.805443 113.776 12.5512 120.272 26.8723 128.149L52.845 142.427L78.6921 128.086L104.508 113.745L104.602 104.895C104.633 100.031 104.633 96.046 104.571 96.046C104.508 96.046 93.233 102.291 79.5086 109.885C65.7842 117.51 54.1641 123.943 53.6302 124.195C52.5938 124.665 56.4567 126.736 3.00386 97.2699L0.742631 96.0146L0.554196 97.0502Z" fill="white"/>
</svg>
