<svg width="277" height="150" viewBox="0 0 277 150" fill="none" xmlns="http://www.w3.org/2000/svg">
<path d="M43.1517 14.0272L28.9562 22.0293L29.2389 23.0335C30.0554 25.8891 29.2389 29.592 27.2917 31.7887C25.0933 34.2992 22.4238 34.5188 20.037 32.3849C19.3146 31.7573 18.4667 30.6276 18.1526 29.8745C17.8071 29.1213 17.4303 28.5565 17.3046 28.6192C15.5773 29.341 7.60022 34.0795 7.75725 34.2992C7.85147 34.4561 7.75725 34.7071 7.56882 34.8326C7.34898 34.9582 10.1127 36.7155 14.4153 39.1946L21.6387 43.3368L39.5714 33.295L57.5042 23.2218L59.0745 24.1318C60.6448 25.0105 60.6448 25.0105 59.9225 25.4812C59.5142 25.7322 51.6627 30.1569 42.4608 35.3347C33.2588 40.4812 25.8785 44.7489 26.0669 44.8117C26.3181 44.9059 26.3181 45.0628 26.0669 45.3452C25.8156 45.659 27.1661 46.569 32.0968 49.4247C35.6143 51.4644 38.6293 53.0962 38.7863 53.0962C38.9747 53.0962 47.0774 48.6402 56.8133 43.1485L74.5262 33.2008L75.751 33.7657C76.4105 34.0481 77.1015 34.4874 77.2585 34.6757C77.5098 34.9895 73.427 37.4372 60.3621 44.7489C46.1981 52.7197 43.1203 54.5711 43.1203 55.1046C43.1203 55.6067 44.4393 56.5167 49.6213 59.5293L56.1537 63.295L81.1214 49.3305C102.069 37.5941 106.089 35.2406 106.089 34.6757C106.089 34.1109 104.519 33.1067 97.5467 29.0586L89.0357 24.1318L82.1892 24.3515L75.3742 24.5711L75.5626 20.523L75.751 16.4749L66.7375 11.2971C61.7754 8.44142 57.6298 6.08786 57.5042 6.05648C57.41 6.0251 50.9404 9.6025 43.1517 14.0272Z" fill="#3D4871"/>
<path d="M130.837 6.46443C130.743 6.74686 130.649 38.5042 130.649 77.0711V147.176H132.847H135.045V76.569V5.96234H133.035C131.496 5.96234 130.994 6.08786 130.837 6.46443Z" fill="#3D4871"/>
<path d="M192.455 34.6443C185.672 37.0607 182.437 44.4038 185.044 51.4017C185.923 53.7866 188.812 56.7678 191.325 57.9289C193.083 58.7448 193.649 58.8389 196.287 58.8389C199.647 58.8389 201.123 58.3996 203.542 56.6109C205.332 55.3243 205.3 54.9477 203.228 52.9079L201.72 51.433L200.244 52.3431C196.444 54.7594 191.545 53.2845 189.66 49.1423C187.682 44.7803 191.262 39.5397 196.224 39.5397C198.046 39.5397 199.836 40.1674 200.935 41.1715L201.626 41.8619L203.322 40.1987C204.578 38.9749 204.955 38.3787 204.829 37.9079C204.641 37.092 202.348 35.4602 200.432 34.7699C198.642 34.1109 194.151 34.0481 192.455 34.6443Z" fill="#3D4871"/>
<path d="M158.914 34.9268C158.914 35.1778 158.223 40.1046 157.344 45.9414C156.496 51.7782 155.773 57.0188 155.773 57.615V58.682H158.097C160.83 58.682 160.421 59.6548 161.458 50.5544C162.306 43.1171 161.772 43.1799 165.98 49.9895C167.55 52.5 168.87 54.5711 168.964 54.6025C169.058 54.6025 170.597 52.2489 172.387 49.3933C174.177 46.5376 175.685 44.2468 175.716 44.3096C175.779 44.3724 176.187 47.5104 176.658 51.2761C177.098 55.0418 177.538 58.274 177.632 58.4309C177.852 58.7761 182.06 58.7448 182.28 58.3996C182.374 58.2427 181.683 52.8766 180.741 46.4749C179.799 40.0732 179.014 34.7385 179.014 34.6757C179.014 34.3305 176.25 34.5502 176.093 34.8954C176.03 35.115 174.397 37.6883 172.481 40.6067L168.995 45.8786L165.289 40.1987L161.583 34.5188H160.264C159.354 34.5188 158.914 34.6443 158.914 34.9268Z" fill="#3D4871"/>
<path d="M207.656 46.5063L207.75 58.5251H210.105H212.461L212.555 53.5669C212.618 48.9226 212.681 48.6402 213.246 48.6402C213.654 48.6402 215.256 50.3033 218.02 53.6611L222.197 58.6506L225.086 58.682C227.881 58.682 227.975 58.6506 227.913 57.9602C227.881 57.5837 225.84 54.8536 223.045 51.5272C220.375 48.3891 218.302 45.6276 218.397 45.4079C218.491 45.1883 220.501 42.8661 222.919 40.2301C225.306 37.6255 227.284 35.2406 227.284 34.9895C227.284 34.613 226.751 34.5188 224.364 34.5188H221.443L217.423 39.069C215.256 41.5795 213.246 43.6192 213.026 43.6192C212.712 43.6192 212.618 42.7092 212.618 39.5711C212.618 37.3431 212.524 35.3033 212.429 35.0209C212.272 34.613 211.739 34.5188 209.917 34.5188H207.593L207.656 46.5063Z" fill="#3D4871"/>
<path d="M83.8537 51.7782C69.3128 59.8117 58.8232 65.8054 58.6976 66.1192C58.3836 66.8724 58.3522 124.582 58.6662 124.55C58.7918 124.55 62.1523 122.762 66.1094 120.565L73.3328 116.548L73.427 95.3975L73.5212 74.2155L91.2341 64.4874L108.978 54.7594V46.3807C108.978 41.7364 108.947 37.9707 108.916 38.0021C108.853 38.0021 97.5781 44.2155 83.8537 51.7782Z" fill="#3D4871"/>
<path d="M4.61667 46.8201C4.33401 58.0544 4.39683 96.0251 4.67948 96.8096C4.83651 97.2176 13.5988 102.207 29.867 111.151C50.7519 122.636 54.8347 124.77 55.0231 124.331C55.2744 123.672 55.3372 110.241 55.0859 109.017C54.9289 108.201 53.3272 107.259 37.1846 98.3787L19.4717 88.6506V76.0356C19.4717 69.069 19.5345 63.3891 19.5973 63.3891C19.6601 63.3891 27.6372 67.751 37.3102 73.0858C53.3586 81.9038 54.9289 82.6883 55.0859 82.092C55.3372 81.2134 55.3372 68.0962 55.0859 66.9351C54.9289 66.0565 54.1752 65.5858 46.3865 61.318C41.6756 58.7761 30.4323 52.5941 21.3874 47.636C12.3425 42.6778 4.93073 38.5983 4.86791 38.5983C4.83651 38.5983 4.71088 42.3012 4.61667 46.8201Z" fill="#3D4871"/>
<path d="M254.419 58.7134C253.917 60.9414 253.948 61.0669 255.142 61.6318C257.937 62.9498 261.297 63.0126 264.186 61.7573C265.82 61.0669 265.882 60.91 265.348 58.8075C265.066 57.6778 264.877 57.4268 264.469 57.6151C260.857 59.2155 258.471 59.2782 256.052 57.8975L254.733 57.1757L254.419 58.7134Z" fill="#3D4871"/>
<path d="M166.42 64.3619C159.762 65.0837 155.114 71.5481 156.119 78.6402C157.344 87.3954 167.456 92.0084 174.711 87.1443C177.066 85.5439 177.066 85.1987 174.962 83.0649L173.455 81.5272L172.261 82.3431C168.775 84.728 164.661 83.9121 162.054 80.3033C160.39 77.9812 160.547 74.9372 162.463 72.4582C164.818 69.3515 169.592 68.7238 172.45 71.1402L173.392 71.9561L175.088 70.2929C176.941 68.4414 177.004 67.9393 175.433 66.6213C173.329 64.8326 169.874 63.9854 166.42 64.3619Z" fill="#3D4871"/>
<path d="M231.147 64.4561C230.205 64.6443 228.823 65.1464 228.101 65.523C226.217 66.4958 223.798 69.0377 222.762 71.1402C221.945 72.8347 221.883 73.2427 221.883 76.569C221.883 79.8326 221.977 80.3661 222.731 81.9665C223.893 84.477 226.091 86.7364 228.603 87.9602C230.519 88.9017 230.896 88.9644 233.817 88.9644C236.643 88.9644 237.146 88.8703 238.842 88.0544C241.26 86.8619 243.647 84.4456 244.809 82.0607C245.657 80.3347 245.751 79.8954 245.751 76.7259C245.751 73.431 245.688 73.1485 244.715 71.1715C242.171 66.0251 236.518 63.2008 231.147 64.4561ZM236.643 70.2615C238.214 70.9519 239.878 72.5837 240.444 73.9644C241.04 75.3452 241.009 78.2636 240.381 79.4874C238.528 83.1276 234.068 84.6966 230.645 82.9079C228.886 81.9979 227.222 79.9895 226.782 78.2636C225.4 72.8347 231.461 67.9079 236.643 70.2615Z" fill="#3D4871"/>
<path d="M177.914 65.3661C177.789 65.774 177.757 66.8724 177.82 67.8138L177.914 69.5084L181.84 69.6653L185.766 69.8222L185.86 79.2992L185.923 88.8075H188.278H190.634L190.697 79.2992L190.791 69.8222L194.811 69.728L198.799 69.6339V67.1548V64.6443H188.435H178.071L177.914 65.3661Z" fill="#3D4871"/>
<path d="M201.186 65.1464C200.935 65.774 200.935 87.1757 201.186 88.0858C201.375 88.7448 201.563 88.8075 203.699 88.8075H206.023V84.7908V80.7741L210.42 80.1151C215.162 79.3619 216.764 78.7657 218.114 77.1339C219.527 75.4707 219.904 74.1841 219.778 71.6736C219.653 68.6611 218.491 66.7782 216.104 65.523L214.439 64.6443H207.907C202.254 64.6443 201.343 64.7071 201.186 65.1464ZM212.963 69.8535C214.063 70.387 214.785 71.8619 214.565 72.9916C214.314 74.4351 212.901 75.2197 209.886 75.6276C208.378 75.8159 206.871 76.0669 206.588 76.1297C206.085 76.2866 206.023 75.9728 206.023 72.8347V69.3515H209.006C211.142 69.3515 212.304 69.5084 212.963 69.8535Z" fill="#3D4871"/>
<path d="M249.363 77.0711V89.5293L253.98 84.6966C256.523 82.0293 260.135 78.295 261.988 76.4121L265.38 72.9602V80.8682V88.8075H267.735H270.091V76.7259V64.6443H268.583H267.044L260.795 71.3912L254.545 78.1067L254.356 71.454C254.262 67.7824 254.168 64.7699 254.137 64.7071C254.105 64.6757 253.006 64.6443 251.718 64.6443H249.363V77.0711Z" fill="#3D4871"/>
<path d="M157.029 106.851V118.964L159.322 118.87L161.583 118.776L161.678 109.268L161.74 99.7908H167.707H173.675V97.2803V94.7699H165.352H157.029V106.851Z" fill="#3D4871"/>
<path d="M177.318 95.272C177.066 95.8996 177.066 117.301 177.318 118.211C177.506 118.87 177.695 118.933 179.83 118.933H182.154V114.916V110.9L186.551 110.209C189.063 109.833 191.45 109.268 192.173 108.923C194.591 107.667 195.973 105.251 195.973 102.27C195.973 99.1318 194.654 96.841 192.11 95.5544C190.54 94.8012 190.351 94.7699 184.007 94.7699C178.385 94.7699 177.475 94.8326 177.318 95.272ZM189.063 99.9477C190.194 100.544 190.634 101.297 190.634 102.709C190.634 104.718 189.817 105.094 183.034 106.224L182.154 106.349V102.929V99.477H185.138C187.211 99.477 188.435 99.6339 189.063 99.9477Z" fill="#3D4871"/>
<path d="M198.014 95.3975C198.077 95.774 199.993 99.6025 202.285 103.933L206.431 111.81L204.986 114.728C202.913 118.87 202.913 118.933 206.023 118.933C208.284 118.933 208.567 118.87 208.975 118.211C210.168 116.36 220.469 95.8054 220.469 95.3347C220.469 94.8326 220.155 94.7699 217.831 94.7699H215.193L212.304 100.293L209.415 105.847L207.781 102.866C206.902 101.203 205.614 98.7238 204.923 97.3117L203.699 94.7699H200.809C198.046 94.7699 197.889 94.8012 198.014 95.3975Z" fill="#3D4871"/>
<path d="M224.238 106.851V118.933H226.594H228.949L229.012 109.425L229.106 99.9477L234.539 99.8535L239.941 99.7908V108.86C239.941 113.849 240.035 118.149 240.129 118.431C240.287 118.839 240.82 118.933 242.642 118.933H244.966V106.851V94.7699H234.602H224.238V106.851Z" fill="#3D4871"/>
<path d="M249.363 106.851V118.933H251.687C253.508 118.933 254.042 118.839 254.199 118.431C254.294 118.149 254.388 113.849 254.388 108.86V99.7908L259.821 99.8535L265.223 99.9477L265.317 109.425L265.38 118.933H267.735H270.091V106.851V94.7699H259.727H249.363V106.851Z" fill="#3D4871"/>
<path d="M4.5542 102.05C4.33435 103.243 4.45998 118.494 4.71123 118.713C4.80544 118.776 16.5512 125.272 30.8723 133.149L56.845 147.427L82.6921 133.086L108.508 118.745L108.602 109.895C108.633 105.031 108.633 101.046 108.571 101.046C108.508 101.046 97.233 107.291 83.5086 114.885C69.7842 122.51 58.1641 128.944 57.6302 129.195C56.5938 129.665 60.4567 131.736 7.00386 102.27L4.74263 101.015L4.5542 102.05Z" fill="#3D4871"/>
</svg>
